<svg width="16" height="16" viewBox="0 0 16 16" fill="none" xmlns="http://www.w3.org/2000/svg">
<g clip-path="url(#clip0_12_413)">
<path d="M13.6784 6.73819C13.6784 11.1544 8.00039 14.9397 8.00039 14.9397C8.00039 14.9397 2.32239 11.1544 2.32239 6.73819C2.32239 5.23229 2.9206 3.78806 3.98544 2.72323C5.05027 1.6584 6.49449 1.06018 8.00039 1.06018C9.50629 1.06018 10.9505 1.6584 12.0153 2.72323C13.0802 3.78806 13.6784 5.23229 13.6784 6.73819Z" stroke="white" stroke-width="1.5" stroke-linecap="round" stroke-linejoin="round"/>
<path d="M8.00009 8.63092C9.04538 8.63092 9.89276 7.78354 9.89276 6.73825C9.89276 5.69296 9.04538 4.84558 8.00009 4.84558C6.9548 4.84558 6.10742 5.69296 6.10742 6.73825C6.10742 7.78354 6.9548 8.63092 8.00009 8.63092Z" stroke="white" stroke-width="1.5" stroke-linecap="round" stroke-linejoin="round"/>
</g>
<defs>
<clipPath id="clip0_12_413">
<rect width="16" height="16" fill="white"/>
</clipPath>
</defs>
</svg>
