<svg width="234" height="117" viewBox="0 0 234 117" fill="none" xmlns="http://www.w3.org/2000/svg">
<path d="M7.86413 111.256C12.3744 111.256 15.6126 107.698 15.6126 103.074V80.0691H37.7016C41.7493 80.0691 44.8718 76.986 44.8718 72.8356C44.8718 68.8039 41.8649 65.6022 37.7016 65.6022H15.6126V46.0364H43.9466C47.9943 46.0364 51.1169 42.8348 51.1169 38.803C51.1169 34.6527 48.11 31.5696 43.9466 31.5696H7.97978C3.35382 31.5696 0 35.0085 0 39.7517V103.074C0 107.698 3.23817 111.256 7.86413 111.256Z" fill="#181C2E"/>
<ellipse cx="199.874" cy="80.6736" rx="26.5424" ry="27.2152" stroke="#E8E8E8" stroke-width="0.736025" stroke-linecap="round" stroke-linejoin="round" stroke-dasharray="0.99 2.96"/>
<path d="M167.18 82.777C167.18 97.5403 155.508 109.508 141.109 109.508C126.711 109.508 115.039 97.5403 115.039 82.777C115.039 68.0137 126.711 56.0457 141.109 56.0457C155.508 56.0457 167.18 68.0137 167.18 82.777ZM130.459 82.777C130.459 88.8079 135.228 93.6969 141.109 93.6969C146.991 93.6969 151.759 88.8079 151.759 82.777C151.759 76.7461 146.991 71.857 141.109 71.857C135.228 71.857 130.459 76.7461 130.459 82.777Z" fill="#FF7622"/>
<path d="M107.218 82.777C107.218 97.5403 95.5457 109.508 81.1474 109.508C66.7491 109.508 55.077 97.5403 55.077 82.777C55.077 68.0137 66.7491 56.0457 81.1474 56.0457C95.5457 56.0457 107.218 68.0137 107.218 82.777ZM70.4974 82.777C70.4974 88.8079 75.2656 93.6969 81.1474 93.6969C87.0292 93.6969 91.7974 88.8079 91.7974 82.777C91.7974 76.7461 87.0292 71.857 81.1474 71.857C75.2656 71.857 70.4974 76.7461 70.4974 82.777Z" fill="#FF7622"/>
<path fill-rule="evenodd" clip-rule="evenodd" d="M43.4642 101.501C43.4642 101.015 43.8481 100.621 44.3218 100.621H57.3798C57.8535 100.621 58.2374 101.015 58.2374 101.501C58.2374 101.986 57.8535 102.38 57.3798 102.38H44.3218C43.8481 102.38 43.4642 101.986 43.4642 101.501Z" fill="#FF7622"/>
<path fill-rule="evenodd" clip-rule="evenodd" d="M103.505 101.501C103.505 101.015 103.889 100.621 104.362 100.621H117.421C117.894 100.621 118.278 101.015 118.278 101.501C118.278 101.986 117.894 102.38 117.421 102.38H104.362C103.889 102.38 103.505 101.986 103.505 101.501Z" fill="#FF7622"/>
<path fill-rule="evenodd" clip-rule="evenodd" d="M33.0359 108.629C33.0359 108.143 33.4198 107.75 33.8935 107.75L57.3797 107.75C57.8534 107.75 58.2373 108.143 58.2373 108.629C58.2373 109.115 57.8534 109.508 57.3797 109.508L33.8935 109.508C33.4198 109.508 33.0359 109.115 33.0359 108.629Z" fill="#FF7622"/>
<path fill-rule="evenodd" clip-rule="evenodd" d="M93.077 108.629C93.077 108.143 93.461 107.75 93.9346 107.75L117.421 107.75C117.895 107.75 118.278 108.143 118.278 108.629C118.278 109.115 117.895 109.508 117.421 109.508L93.9346 109.508C93.461 109.508 93.077 109.115 93.077 108.629Z" fill="#FF7622"/>
<path fill-rule="evenodd" clip-rule="evenodd" d="M43.4642 115.757C43.4642 115.272 43.8481 114.878 44.3218 114.878L67.808 114.878C68.2817 114.878 68.6656 115.272 68.6656 115.757C68.6656 116.243 68.2817 116.637 67.808 116.637L44.3218 116.637C43.8481 116.637 43.4642 116.243 43.4642 115.757Z" fill="#FF7622"/>
<path fill-rule="evenodd" clip-rule="evenodd" d="M103.505 115.757C103.505 115.272 103.889 114.878 104.362 114.878L127.849 114.878C128.322 114.878 128.706 115.272 128.706 115.757C128.706 116.243 128.322 116.637 127.849 116.637L104.362 116.637C103.889 116.637 103.505 116.243 103.505 115.757Z" fill="#FF7622"/>
<path d="M149.633 52.9724C151.727 52.9724 153.443 51.2279 153.25 49.0897C152.37 39.3003 148.182 30.0842 141.347 23.0754C133.614 15.1462 123.125 10.6917 112.189 10.6917C101.253 10.6917 90.7642 15.1462 83.0311 23.0754C76.1956 30.0842 72.0077 39.3003 71.1276 49.0897C70.9353 51.2279 72.6511 52.9724 74.7452 52.9724L112.189 52.9724H149.633Z" fill="#FF7622"/>
<path d="M117.403 7.77577C117.403 10.9966 115.069 13.6076 112.189 13.6076C109.31 13.6076 106.975 10.9966 106.975 7.77577C106.975 4.55494 109.31 1.94394 112.189 1.94394C115.069 1.94394 117.403 4.55494 117.403 7.77577Z" fill="white"/>
<path fill-rule="evenodd" clip-rule="evenodd" d="M112.189 3.88789C110.509 3.88789 108.871 5.46587 108.871 7.77577C108.871 10.0857 110.509 11.6637 112.189 11.6637C113.87 11.6637 115.507 10.0857 115.507 7.77577C115.507 5.46587 113.87 3.88789 112.189 3.88789ZM105.08 7.77577C105.08 3.64401 108.111 0 112.189 0C116.268 0 119.299 3.64401 119.299 7.77577C119.299 11.9075 116.268 15.5515 112.189 15.5515C108.111 15.5515 105.08 11.9075 105.08 7.77577Z" fill="#FF7622"/>
<path d="M95.3515 23.8141C94.8916 23.0309 93.9003 22.7693 93.1527 23.2675C87.5002 27.0337 83.0637 32.3951 80.3943 38.6849C80.03 39.5432 80.469 40.5226 81.3258 40.8458C82.1716 41.1648 83.1061 40.723 83.4691 39.8772C85.8644 34.2972 89.7995 29.5321 94.8019 26.1541C95.5594 25.6425 95.8194 24.6109 95.3515 23.8141Z" fill="white"/>
<path d="M101.94 20.7979C101.659 19.9296 100.746 19.4522 99.9105 19.7729C99.0154 20.1166 98.1348 20.4976 97.271 20.915C96.4513 21.3112 96.1533 22.3369 96.5871 23.1527C97.014 23.9553 97.9895 24.2521 98.7975 23.8655C99.4903 23.5339 100.195 23.2282 100.91 22.949C101.753 22.6196 102.224 21.6762 101.94 20.7979Z" fill="white"/>
<rect x="215.989" y="30.1311" width="18.0109" height="79.7017" rx="9.00546" fill="#181C2E"/>
<path d="M228.312 81.1596C228.312 96.9954 215.792 109.833 200.348 109.833C184.904 109.833 172.384 96.9954 172.384 81.1596C172.384 65.3239 184.904 52.4865 200.348 52.4865C215.792 52.4865 228.312 65.3239 228.312 81.1596ZM188.924 81.1596C188.924 87.6287 194.039 92.8728 200.348 92.8728C206.657 92.8728 211.772 87.6287 211.772 81.1596C211.772 74.6906 206.657 69.4464 200.348 69.4464C194.039 69.4464 188.924 74.6906 188.924 81.1596Z" fill="#181C2E"/>
</svg>
