<svg width="16" height="16" viewBox="0 0 16 16" fill="none" xmlns="http://www.w3.org/2000/svg">
<path d="M9.39261 9.39247C9.2122 9.58608 8.99463 9.74138 8.7529 9.84909C8.51116 9.9568 8.25021 10.0147 7.98561 10.0194C7.721 10.024 7.45817 9.97537 7.21279 9.87626C6.9674 9.77715 6.7445 9.62962 6.55737 9.44249C6.37023 9.25536 6.22271 9.03245 6.1236 8.78707C6.02448 8.54168 5.97581 8.27885 5.98047 8.01425C5.98514 7.74964 6.04306 7.48869 6.15077 7.24696C6.25848 7.00522 6.41377 6.78766 6.60739 6.60725M11.9019 11.9018C10.779 12.7577 9.41173 13.2319 8 13.255C3.40176 13.255 0.774194 7.99986 0.774194 7.99986C1.59129 6.47711 2.72459 5.14672 4.09806 4.09792L11.9019 11.9018ZM6.62053 2.90238C7.07269 2.79654 7.53562 2.74363 8 2.74472C12.5982 2.74472 15.2258 7.99986 15.2258 7.99986C14.8271 8.74583 14.3515 9.44813 13.8069 10.0953L6.62053 2.90238Z" stroke="#A0A5BA" stroke-width="1.5" stroke-linecap="round" stroke-linejoin="round"/>
<path d="M0.774194 0.774194L15.2258 15.2258" stroke="#A0A5BA" stroke-width="1.5" stroke-linecap="round" stroke-linejoin="round"/>
</svg>
